<?xml version="1.0" standalone="no"?><!DOCTYPE svg PUBLIC "-//W3C//DTD SVG 1.1//EN" "http://www.w3.org/Graphics/SVG/1.1/DTD/svg11.dtd"><svg t="1518144275913" class="icon" style="" viewBox="0 0 1024 1024" version="1.1" xmlns="http://www.w3.org/2000/svg" p-id="1965" xmlns:xlink="http://www.w3.org/1999/xlink" width="200" height="200"><defs><style type="text/css"></style></defs><path d="M358.4 640c0 12.8 6.4 57.6 12.8 89.6 38.4-12.8 76.8-25.6 89.6-32l153.6-268.8-96-57.6L358.4 640zM637.952 396.288l-99.776-57.6 25.6-44.352 99.84 57.6z" p-id="1966" fill="#d4237a"></path><path d="M512 0C230.4 0 0 230.4 0 512s230.4 512 512 512 512-230.4 512-512-230.4-512-512-512z m185.6 364.8l-204.8 352c-6.4 6.4-6.4 12.8-102.4 44.8-12.8 6.4-19.2 6.4-32 0s-19.2-12.8-19.2-25.6c-19.2-102.4-12.8-108.8-12.8-115.2l204.8-352c6.4-12.8 25.6-19.2 44.8-6.4l108.8 64c12.8 6.4 19.2 25.6 12.8 38.4z" p-id="1967" fill="#d4237a"></path></svg>