<?xml version="1.0" standalone="no"?><!DOCTYPE svg PUBLIC "-//W3C//DTD SVG 1.1//EN" "http://www.w3.org/Graphics/SVG/1.1/DTD/svg11.dtd"><svg t="1515579646524" class="icon" style="" viewBox="0 0 1024 1024" version="1.1" xmlns="http://www.w3.org/2000/svg" p-id="4714" xmlns:xlink="http://www.w3.org/1999/xlink" width="200" height="200"><defs><style type="text/css"></style></defs><path d="M593.585633 604.661551l0 88.001306 112.890776-112.890776-88.001306 0C604.724245 579.772082 593.585633 590.910694 593.585633 604.661551z" fill="#71D398" p-id="4715"></path><path d="M718.03298 281.098449 319.780571 281.098449c-13.750857 0-24.889469 11.138612-24.889469 24.889469l0 398.210612c0 13.750857 11.138612 24.889469 24.889469 24.889469l224.005224 0 0-149.336816c0-27.480816 22.277224-49.778939 49.778939-49.778939l149.336816 0L742.901551 305.987918C742.922449 292.257959 731.762939 281.098449 718.03298 281.098449zM444.227918 604.661551l-49.778939 0c-13.750857 0-24.889469-11.138612-24.889469-24.889469 0-13.750857 11.138612-24.889469 24.889469-24.889469l49.778939 0c13.750857 0 24.889469 11.138612 24.889469 24.889469C469.138286 593.522939 457.978776 604.661551 444.227918 604.661551zM643.364571 505.103673l-248.894694 0c-13.750857 0-24.889469-11.138612-24.889469-24.889469 0-13.750857 11.138612-24.889469 24.889469-24.889469l248.894694 0c13.750857 0 24.889469 11.138612 24.889469 24.889469C668.254041 493.965061 657.094531 505.103673 643.364571 505.103673zM643.364571 405.545796l-248.894694 0c-13.750857 0-24.889469-11.138612-24.889469-24.889469s11.138612-24.889469 24.889469-24.889469l248.894694 0c13.750857 0 24.889469 11.138612 24.889469 24.889469S657.094531 405.545796 643.364571 405.545796z" fill="#71D398" p-id="4716"></path><path d="M512 10.44898c-277.002449 0-501.55102 224.548571-501.55102 501.55102s224.548571 501.55102 501.55102 501.55102 501.55102-224.548571 501.55102-501.55102S789.002449 10.44898 512 10.44898zM792.701388 554.882612l-0.041796 0c0.062694 6.603755-2.424163 13.228408-7.460571 18.264816l-198.238041 198.238041c-5.036408 5.036408-11.661061 7.523265-18.264816 7.460571l-273.784163 0.041796c-27.480816 0-49.778939-22.277224-49.778939-49.778939L245.133061 281.098449c0-27.501714 22.298122-49.778939 49.778939-49.778939L742.922449 231.31951c27.501714 0 49.778939 22.277224 49.778939 49.778939L792.701388 554.882612z" fill="#71D398" p-id="4717"></path></svg>