<?xml version="1.0" standalone="no"?><!DOCTYPE svg PUBLIC "-//W3C//DTD SVG 1.1//EN" "http://www.w3.org/Graphics/SVG/1.1/DTD/svg11.dtd"><svg t="1515579722825" class="icon" style="" viewBox="0 0 1024 1024" version="1.1" xmlns="http://www.w3.org/2000/svg" p-id="5246" xmlns:xlink="http://www.w3.org/1999/xlink" width="200" height="200"><defs><style type="text/css"></style></defs><path d="M580.933818 369.105455c-2.420364-11.147636-5.562182-21.922909-9.518545-32.232727-26.949818-70.469818-87.365818-119.645091-157.742545-119.645091-95.441455 0-172.8 90.321455-172.8 201.704727 0 111.406545 77.358545 201.704727 172.8 201.704727 34.187636 0 65.978182-11.752727 92.811636-31.744 9.029818-6.725818 17.454545-14.405818 25.227636-22.923636C565.341091 529.128727 586.472727 476.951273 586.472727 418.909091 586.472727 401.687273 584.424727 385.070545 580.933818 369.105455zM390.097455 290.234182c-45.451636 15.220364-77.451636 59.136-86.690909 114.525091l-0.442182-0.069818c-1.093818 7.424-7.284364 13.242182-15.104 13.242182-8.587636 0-15.546182-6.865455-15.546182-15.36 0-0.861091 0.372364-1.629091 0.512-2.443636l-0.442182-0.069818c11.496727-69.632 56.459636-123.648 110.801455-140.916364 0.651636-0.209455 1.326545-0.372364 2.001455-0.581818 1.536-0.465455 6.446545-0.581818 7.307636-0.442182 7.866182 1.233455 13.986909 7.703273 13.986909 15.825455C406.481455 282.903273 398.359273 287.976727 390.097455 290.234182z" p-id="5247" fill="#54B0F1"></path><path d="M413.672727 651.636364c-8.168727 0-16.174545-0.698182-24.110545-1.745455l-8.378182 23.808 62.836364 0-8.238545-23.482182C428.520727 651.124364 421.143273 651.636364 413.672727 651.636364z" p-id="5248" fill="#54B0F1"></path><path d="M664.203636 336.151273c-19.688727 0-38.423273 4.887273-55.458909 13.661091 5.957818 21.806545 9.146182 45.032727 9.146182 69.073455 0 71.749818-28.625455 135.726545-73.425455 178.385455 24.994909 48.104727 69.213091 80.221091 119.738182 80.221091 78.08 0 141.381818-76.404364 141.381818-170.658909C805.585455 412.578909 742.283636 336.151273 664.203636 336.151273zM762.577455 567.994182c0.465455 1.303273 1.000727 2.56 1.093818 4.002909 0.116364 1.792-0.232727 3.514182-0.698182 5.143273-0.395636 0.907636-0.698182 1.861818-1.117091 2.746182-11.845818 25.669818-30.440727 45.684364-53.248 56.296727-1.047273 0.628364-2.187636 1.047273-3.351273 1.419636-1.256727 0.395636-3.607273 0.768-4.980364 0.861091-8.261818-0.069818-15.266909-6.237091-15.825455-14.522182-0.535273-7.889455 4.701091-14.033455 12.590545-16.500364 14.336-7.051636 26.274909-19.851636 34.629818-36.328727 2.141091-6.446545 7.098182-13.405091 14.894545-13.917091C753.966545 556.706909 760.273455 561.384727 762.577455 567.994182z" p-id="5249" fill="#54B0F1"></path><path d="M512 0C229.236364 0 0 229.236364 0 512s229.236364 512 512 512 512-229.236364 512-512S794.763636 0 512 0zM690.944 705.861818l8.122182 20.177455-17.082182 0c-1.722182 4.840727-2.839273 9.797818-2.583273 12.101818 11.985455 14.778182 10.565818 33.908364 2.816 45.405091-2.583273 3.793455-11.450182 19.688727-16.430545 28.834909-2.839273 5.189818-8.261818 8.145455-13.847273 8.145455-2.513455 0-5.073455-0.581818-7.470545-1.861818-7.610182-4.072727-10.472727-13.498182-6.353455-21.038545 2.257455-4.142545 13.800727-25.181091 17.92-31.278545 0.023273-0.023273 2.327273-4.724364-1.326545-9.006545-7.703273-8.96-7.586909-20.968727-5.352727-31.301818L628.363636 726.039273l8.168727-20.363636c-48.709818-9.169455-90.507636-42.146909-116.596364-88.273455-18.850909 13.102545-39.656727 22.900364-61.858909 28.509091l17.361455 49.408-47.080727 0c-0.116364 1.466182-0.162909 2.932364-0.721455 4.352-4.538182 11.892364-7.959273 26.274909-7.563636 31.534545 16.942545 21.969455 19.316364 42.658909 7.074909 61.556364-11.915636 18.338909-23.482182 35.537455-23.691636 35.863273-2.885818 5.050182-8.192 7.866182-13.684364 7.866182-2.629818 0-5.282909-0.651636-7.726545-2.024727-7.540364-4.235636-10.193455-13.707636-5.911273-21.154909 0.861091-1.489455 12.194909-18.269091 24.576-37.329455 4.980364-7.633455 3.211636-14.987636-6.469818-27.089455-7.866182-9.844364-7.214545-27.927273 1.675636-53.597091l-46.126545 0 17.570909-49.966545C276.898909 621.428364 209.454545 529.245091 209.454545 418.909091c0-128.535273 91.415273-232.727273 204.218182-232.727273 81.826909 0 152.203636 54.970182 184.785455 134.167273 20.270545-9.751273 42.472727-15.197091 65.745455-15.197091 95.441455 0 172.8 90.298182 172.8 201.704727C837.003636 607.581091 773.655273 690.827636 690.944 705.861818z" p-id="5250" fill="#54B0F1"></path></svg>