<!-- Generator: Adobe Illustrator 21.0.2, SVG Export Plug-In  -->
<svg version="1.1"
	 xmlns="http://www.w3.org/2000/svg" xmlns:xlink="http://www.w3.org/1999/xlink" xmlns:a="http://ns.adobe.com/AdobeSVGViewerExtensions/3.0/"
	 x="0px" y="0px" width="109.1px" height="100px" viewBox="0 0 109.1 100" style="enable-background:new 0 0 109.1 100;"
	 xml:space="preserve">
<style type="text/css">
	.st0{fill:#EFEFEF;}
	.st1{fill:#C9CACA;}
	.st2{fill:#DCDDDD;}
</style>
<defs>
</defs>
<path class="st0" d="M83.9,1.9c1.1-0.1,1.9-0.1,1.9-0.1c6.7-0.1,7.3,6.8,7.3,6.8v14.1H77.6V9C77.8,3.5,81.6,2.2,83.9,1.9L83.9,1.9z
	 M66.2,80H11.5C0.1,76.2,1.9,63.2,1.9,63.2h52.7C54.5,74,57.4,80,66.2,80z"/>
<path class="st1" d="M66.2,81.8h-55L11,81.7C0.7,78.4-0.6,68,0.2,63l0.2-1.5h56.1v1.9c-0.1,6.4,0.9,10.5,3.1,12.7
	c1.5,1.5,3.7,2.3,6.7,2.3c0.4,0,0.9,0,1.4,0c8.3-0.5,8.2-10,8.2-10.5V9c0.3-7.2,5.7-8.6,8-8.8C84.8,0,85.6,0,85.9,0l0,0
	c6.4,0,8.7,5.5,9.1,8.4v0.2v15.8H79.4v43.2c0.1,4.6-2.2,13.5-11.5,14.1C67.3,81.8,66.8,81.8,66.2,81.8z M11.9,78.3h44.9
	c-2.5-2.7-3.7-7-3.9-13.2H3.6C3.6,68.2,4.2,75.5,11.9,78.3z M79.4,20.9h11.9V8.7c-0.1-0.8-0.9-5.1-5.5-5.1h-0.2h-0.1
	c0,0-0.7,0-1.4,0c-3.1,0.4-4.6,2.2-4.8,5.5L79.4,20.9L79.4,20.9z"/>
<path class="st1" d="M18.1,62.9h-3.6v-49C14.8,9.5,17.9,1,27.1,0h0.2h58.4v3.6H27.5c-8.4,0.9-9.3,9.6-9.4,10.5V62.9z"/>
<path class="st2" d="M65.9,30.1H25.5c-0.7,0-1.2-0.5-1.2-1.2c0-0.7,0.5-1.2,1.2-1.2h40.4c0.7,0,1.2,0.5,1.2,1.2
	C67.1,29.6,66.6,30.1,65.9,30.1z"/>
<path class="st2" d="M65.9,40.3H25.5c-0.7,0-1.2-0.5-1.2-1.2s0.5-1.2,1.2-1.2h40.4c0.7,0,1.2,0.5,1.2,1.2
	C67.1,39.8,66.6,40.3,65.9,40.3z"/>
<path class="st2" d="M50,50.5H25.5c-0.7,0-1.2-0.5-1.2-1.2c0-0.7,0.5-1.2,1.2-1.2H50c0.7,0,1.2,0.5,1.2,1.2
	C51.2,50,50.6,50.5,50,50.5z"/>
<path class="st1" d="M101.9,60.7l6.8-6.8c0.5-0.5,0.5-1.5,0-2.1c-0.5-0.5-1.5-0.5-2.1,0l-6.8,6.9L93,51.8c-0.5-0.5-1.5-0.5-2.1,0
	c-0.5,0.5-0.5,1.5,0,2.1l6.8,6.8l-6.8,6.8c-0.5,0.5-0.5,1.5,0,2.1c0.3,0.3,0.7,0.4,1.1,0.4s0.8-0.1,1.1-0.4l6.8-6.8l6.8,6.8
	c0.3,0.3,0.7,0.4,1.1,0.4c0.4,0,0.8-0.1,1.1-0.4c0.5-0.5,0.5-1.5,0-2.1L101.9,60.7L101.9,60.7z"/>
<path class="st0" d="M67.4,93.8c0,3.4-13.1,6.2-29.3,6.2S9,97.2,9,93.8s13.1-6.2,29.3-6.2C54.4,87.7,67.4,90.4,67.4,93.8z"/>
<path class="st2" d="M61.4,18.9c-0.3,0-0.5-0.2-0.5-0.5v-6.6c0-0.3,0.2-0.5,0.5-0.5c0.3,0,0.5,0.2,0.5,0.5v6.6
	C62.1,18.7,61.9,18.9,61.4,18.9z M70.3,18.9c-0.3,0-0.5-0.2-0.5-0.5v-6.6c0-0.3,0.2-0.5,0.5-0.5s0.5,0.2,0.5,0.5v6.6
	C70.8,18.7,70.6,18.9,70.3,18.9z M65.9,21.1c-0.3,0-0.5-0.2-0.5-0.5V9.6c0-0.3,0.2-0.5,0.5-0.5s0.5,0.2,0.5,0.5v10.9
	C66.4,20.9,66.2,21.1,65.9,21.1z"/>
</svg>
