<?xml version="1.0" standalone="yes"?>
<svg xmlns="http://www.w3.org/2000/svg" width="121" height="114">
<path style="fill:#ffffff; stroke:none;" d="M0 0L0 95C8.09831 93.9765 15.3569 93.8648 23 97.3133C26.7924 99.0244 30.1237 102.512 34 103.778C37.3571 104.874 40.5985 102.341 44 102.514C47.532 102.694 50.4957 105.267 54 105.336C58.446 105.423 62.5021 101.74 67 101.185C69.9719 100.819 73.1848 100.919 76 102.005C78.6298 103.019 81.0333 105.346 84 105.199C88.3373 104.984 92.797 101.153 97 99.9128C104.029 97.8393 109.864 98.4368 117 99L117 101C108.32 100.821 101.529 100.602 93 103C94.5061 103.683 95.3148 103.826 97 104C93.7615 106.868 89.5157 108.373 86 111C87.1109 108.799 88.5415 107 90 105C87.845 105.757 85.3408 107.215 82.9985 107.025C79.459 106.738 76.5897 103.773 73 103.214C65.9328 102.114 58.7748 104.832 54 110C50.6244 107 47.6943 104.947 43 105.059C40.0671 105.129 36.8717 106.739 34 105.778C30.0158 104.444 26.9747 100.727 23 99.0941C15.2068 95.8921 8.09864 96.6523 0 97L0 114L121 114L121 0L87 0L87 6L84 6L84 0L0 0z"/>
<path style="fill:#e7e7e7; stroke:none;" d="M84.3333 0.666664C84.2778 0.722221 84.2222 1.77778 84.6667 1.33334C84.7222 1.27778 84.7778 0.222214 84.3333 0.666664z"/>
<path style="fill:#b3b3b3; stroke:none;" d="M85 0C84.4549 1.63517 84.6352 1.45495 83 2L83 4L87 6C87.3628 3.76831 87.3628 2.2317 87 0L85 0z"/>
<path style="fill:#e7e7e7; stroke:none;" d="M84.3333 4.66666C84.2778 4.72222 84.2222 5.77776 84.6667 5.33334C84.7222 5.27779 84.7778 4.2222 84.3333 4.66666M11.3333 11.6667C11.2778 11.7222 11.2222 12.7778 11.6667 12.3333C11.7222 12.2778 11.7778 11.2222 11.3333 11.6667z"/>
<path style="fill:#b3b3b3; stroke:none;" d="M12 11C11.4549 12.6352 11.6352 12.4549 10 13L10 15L14 17C14.3628 14.7683 14.3628 13.2317 14 11L12 11z"/>
<path style="fill:#c7c7c7; stroke:none;" d="M15.3333 13.6667C15.2778 13.7222 15.2222 14.7778 15.6667 14.3333C15.7222 14.2778 15.7778 13.2222 15.3333 13.6667z"/>
<path style="fill:#e7e7e7; stroke:none;" d="M11.3333 15.6667C11.2778 15.7222 11.2222 16.7778 11.6667 16.3333C11.7222 16.2778 11.7778 15.2222 11.3333 15.6667z"/>
<path style="fill:#d3d3d3; stroke:none;" d="M19 21C26.1593 24.0042 37.2563 22 45 22L103 22C95.8407 18.9958 84.7437 21 77 21L19 21z"/>
<path style="fill:#b3b3b3; stroke:none;" d="M10 89L12 89C12 74.6743 12.2516 60.3229 11.9753 46C11.8739 40.7439 10.4897 32.6162 13.6034 28.0548C17.9147 21.7389 26.3838 23 33 23L86 23C92.633 23 102.583 21.3148 107.297 27.2245C111.407 32.3767 110 40.8718 110 47L110 94L112 94L112 46C112 39.5292 113.526 30.6411 109.146 25.2284C104.927 20.0153 94.9524 22 89 22L33 22C26.5044 22 15.9575 19.8317 11.7423 26.0586C8.44366 30.9316 10 39.3947 10 45L10 89z"/>
<path style="fill:#bebebe; stroke:none;" d="M19 23C26.1593 26.0042 37.2563 24 45 24L102 24C94.8407 20.9958 83.7437 23 76 23L19 23z"/>
<path style="fill:#ffffff; stroke:none;" d="M12 40L109 40C109 35.4512 110.359 27.9838 105.772 25.179C100.545 21.9834 89.9468 24 84 24L36 24C30.3679 24 21.121 22.2552 16.0586 25.0278C10.7805 27.9185 12 34.9551 12 40z"/>
<path style="fill:#b1b1b1; stroke:none;" d="M21.1289 28.9707C16.6766 30.0813 18.3205 36.5532 22.8711 35.6235C27.4208 34.6939 25.4786 27.8856 21.1289 28.9707z"/>
<path style="fill:#b3b3b3; stroke:none;" d="M29.3179 29.0864C25.188 31.4708 29.6711 37.703 33.2539 34.9529C36.4612 32.491 32.9053 27.0153 29.3179 29.0864z"/>
<path style="fill:#acacac; stroke:none;" d="M38.3032 29.1366C34.2454 31.3407 37.5578 37.6099 41.6713 34.9537C45.1797 32.6882 41.9501 27.1557 38.3032 29.1366z"/>
<path style="fill:#d7d7d7; stroke:none;" d="M21.6667 30.3333C21.2222 30.7778 22.2778 30.7222 22.3333 30.6667C22.7778 30.2222 21.7222 30.2778 21.6667 30.3333z"/>
<path style="fill:#ffffff; stroke:none;" d="M30 30L29 31L29 33L33 34L32 30L30 30M39 30L38 34L42 33L42 31L39 30M20 31C21.2259 33.0347 21.7026 33.3264 24 34C23.422 31.3025 22.7386 31.2107 20 31z"/>
<path style="fill:#e7e7e7; stroke:none;" d="M109 31L109 40C110.256 37.0059 110.256 33.9941 109 31M9 32L9 89C10.7687 84.7849 10 79.5355 10 75L10 47C10 42.1913 10.8752 36.4687 9 32z"/>
<path style="fill:#b3b3b3; stroke:none;" d="M56 34C71.162 30.3902 89.4346 33 105 33C101.041 31.3389 96.2603 32 92 32L68 32C64.1096 32 58.7193 30.8881 56 34z"/>
<path style="fill:#a6a6a6; stroke:none;" d="M57 33C61.7199 34.9806 67.9198 34 73 34L105 34C100.28 32.0194 94.0802 33 89 33L57 33z"/>
<path style="fill:#b3b3b3; stroke:none;" d="M116 34C115.478 36.981 115.66 38.2894 117 41C119.551 38.5643 119.545 37.1067 118 34L116 34z"/>
<path style="fill:#d3d3d3; stroke:none;" d="M118.333 34.6667C118.278 34.7222 118.222 35.7778 118.667 35.3333C118.722 35.2778 118.778 34.2222 118.333 34.6667z"/>
<path style="fill:#e1e1e1; stroke:none;" d="M21.6667 36.3333C21.2222 36.7778 22.2778 36.7222 22.3333 36.6667C22.7778 36.2222 21.7222 36.2778 21.6667 36.3333z"/>
<path style="fill:#e5e5e5; stroke:none;" d="M39.6667 36.3333C39.2222 36.7778 40.2778 36.7222 40.3333 36.6667C40.7777 36.2223 39.7222 36.2778 39.6667 36.3333z"/>
<path style="fill:#a8a8a8; stroke:none;" d="M11 40L11 42L110 42L110 40L11 40z"/>
<path style="fill:#e7e7e7; stroke:none;" d="M109 42L109 94C110.661 90.0414 110 85.2603 110 81L110 56C110 51.4645 110.769 46.2151 109 42z"/>
<path style="fill:#b3b3b3; stroke:none;" d="M48.2994 65.1759C44.8758 66.8614 46.7578 73.6197 50.5849 71.6728C53.9878 69.9418 52.1658 63.2724 48.2994 65.1759M71.3032 66.0864C67.715 68.2317 70.9411 74.2607 74.4005 71.9136C77.3952 69.8817 74.953 63.9043 71.3032 66.0864z"/>
<path style="fill:#acacac; stroke:none;" d="M48 89C52.3281 87.2066 56.2264 83.9738 61 83.3688C66.6416 82.6538 71.4388 86.2567 76 89L77 88C70.0886 79.1988 53.4657 77.8887 48 89z"/>
<path style="fill:#afafaf; stroke:none;" d="M0 97C8.29071 96.3457 15.1475 95.9205 23 99.5185C26.8249 101.271 29.9517 105.236 34 106.296C37.1191 107.113 39.9375 104.992 43 104.858C47.1231 104.677 50.1324 107.444 53 110C57.333 107.597 62.3446 105.304 66 102C60.8856 101.704 57.2566 104.44 53 107C48.0263 99.473 41.6155 104.83 35 103.379C32.4043 102.81 30.2471 100.66 28 99.3511C21.6655 95.6612 5.56087 89.6952 0 97z"/>
<path style="fill:#e4e4e4; stroke:none;" d="M4.66667 96.3333C4.22222 96.7778 5.27778 96.7222 5.33333 96.6667C5.77778 96.2222 4.72222 96.2778 4.66667 96.3333z"/>
<path style="fill:#d0d0d0; stroke:none;" d="M12.6667 96.3333C12.2222 96.7778 13.2778 96.7222 13.3333 96.6667C13.7778 96.2222 12.7222 96.2778 12.6667 96.3333z"/>
<path style="fill:#b0b0b0; stroke:none;" d="M73 102C75.6268 104.207 79.4263 107.286 83 107.473C88.2177 107.746 94.6938 102.612 100 101.425C105.857 100.115 111.097 100.951 117 101L117 99C109.621 98.0674 103.245 97.7754 96 99.9128C92.1454 101.05 87.9933 104.479 84 104.625C79.9776 104.772 77.2455 101.514 73 102z"/>
<path style="fill:#a4a4a4; stroke:none;" d="M65 101C67.9735 103.251 70.4874 103.027 74 102C71.1103 100.787 68.1259 101.002 65 101z"/>
<path style="fill:#d0d0d0; stroke:none;" d="M92 103C90.9644 104.186 90.6613 104.604 90 106C91.8487 105.033 92.7225 104.86 92 103z"/>
<path style="fill:#d3d3d3; stroke:none;" d="M42 104C43.2484 104.685 43.5484 104.749 45 105C43.7516 104.315 43.4516 104.251 42 104z"/>
<path style="fill:#b2b2b2; stroke:none;" d="M86 111C89.6247 109.012 94.5335 107.299 97 104C92.1328 104.501 87.6254 106.077 86 111z"/>
<path style="fill:#adadad; stroke:none;" d="M15 106C23.1669 109.435 32.4871 110.367 41 113C38.4325 108.605 34.5654 108.926 30 110C26.7454 104.785 20.4843 104.383 15 106z"/>
<path style="fill:#e0e0e0; stroke:none;" d="M53.6667 106.333C53.2222 106.778 54.2778 106.722 54.3333 106.667C54.7778 106.222 53.7222 106.278 53.6667 106.333z"/>
<path style="fill:#cacaca; stroke:none;" d="M30.6667 109.333C30.2222 109.778 31.2778 109.722 31.3333 109.667C31.7778 109.222 30.7222 109.278 30.6667 109.333z"/>
</svg>
