<!-- Generator: Adobe Illustrator 21.0.0, SVG Export Plug-In  -->
<svg version="1.1"
	 xmlns="http://www.w3.org/2000/svg" xmlns:xlink="http://www.w3.org/1999/xlink" xmlns:a="http://ns.adobe.com/AdobeSVGViewerExtensions/3.0/"
	 x="0px" y="0px" width="120px" height="112.9px" viewBox="0 0 120 112.9"
	 style="overflow:scroll;enable-background:new 0 0 120 112.9;" xml:space="preserve">
<style type="text/css">
	.st0{fill:#B3B3B3;}
</style>
<defs>
</defs>
<rect x="10.1" y="13.3" class="st0" width="5.2" height="1.6"/>
<path class="st0" d="M11.9,11.2h1.5v6h-1.5V11.2z M83,2.2h5.1v1.6H83L83,2.2z M83,2.2"/>
<path class="st0" d="M84.9,0h1.5v6h-1.5V0z M114.9,36.6h5.1v1.6h-5.1V36.6z M114.9,36.6"/>
<path class="st0" d="M116.7,34.5h1.5v6h-1.5V34.5z M11.4,89V32.2c0-4.9,3.6-8.8,8-8.8h82.5c4.4,0,8,4,8,8.8v61.5h1.5V32.2
	c0-5.7-4.3-10.4-9.5-10.4H19.4c-5.2,0-9.5,4.7-9.5,10.4V89H11.4z M11.4,89"/>
<path class="st0" d="M10.7,40.3H111v1.6H10.7V40.3z M31.3,36.1c-1.6,0.1-3-0.8-3.7-2.2c-0.7-1.4-0.4-3.1,0.7-4.3
	c1.1-1.1,2.7-1.5,4.2-0.9c1.5,0.6,2.4,2,2.4,3.6C34.9,34.3,33.3,36,31.3,36.1L31.3,36.1z M31.3,30c-0.9-0.1-1.8,0.5-2.2,1.3
	c-0.4,0.8-0.2,1.8,0.4,2.5c0.6,0.7,1.6,0.9,2.5,0.6c0.9-0.3,1.4-1.2,1.4-2.1C33.5,31,32.5,30,31.3,30L31.3,30z M22.2,36.2
	c-1.6,0.1-3-0.8-3.7-2.2c-0.7-1.4-0.4-3.1,0.7-4.3c1.1-1.1,2.7-1.5,4.2-0.9c1.5,0.6,2.4,2,2.4,3.6C25.9,34.4,24.3,36.2,22.2,36.2
	L22.2,36.2z M22.2,30.1c-0.9-0.1-1.8,0.5-2.2,1.3c-0.4,0.8-0.2,1.8,0.4,2.5c0.6,0.7,1.6,0.9,2.5,0.6c0.9-0.3,1.4-1.2,1.4-2.1
	C24.4,31.2,23.5,30.2,22.2,30.1L22.2,30.1z M40,36.2c-1.6,0.1-3-0.8-3.7-2.2c-0.7-1.4-0.4-3.1,0.7-4.3c1.1-1.2,2.7-1.5,4.2-0.9
	c1.5,0.6,2.4,2,2.4,3.6C43.6,34.4,42,36.2,40,36.2L40,36.2z M40,30.1c-0.9-0.1-1.8,0.4-2.2,1.3c-0.4,0.8-0.2,1.8,0.4,2.5
	c0.6,0.7,1.6,0.9,2.5,0.6c0.9-0.3,1.4-1.2,1.4-2.1C42.1,31.2,41.2,30.2,40,30.1L40,30.1L40,30.1z M56.6,32H105v1.6H56.6L56.6,32z
	 M45.9,68.3c0,2.2,1.5,4,3.4,4c1.9,0,3.4-1.8,3.4-4c0-2.2-1.5-4-3.4-4C47.5,64.3,45.9,66.1,45.9,68.3L45.9,68.3z M69.3,69
	c0,2.2,1.5,4,3.4,4c1.9,0,3.4-1.8,3.4-4c0-2.2-1.5-4-3.4-4C70.8,65,69.3,66.8,69.3,69L69.3,69z M49,88.8l-1-1.1
	c8-8.5,20.9-8.6,28.8-0.2l-1,1.1C68.4,80.8,56.4,80.9,49,88.8L49,88.8z M116.7,99.6c-11.4-3-24.6,0-34.9,8.2h2.6
	c9.8-7.1,21.8-9.5,32.3-6.6L116.7,99.6L116.7,99.6z M33.9,106.7h2c-2.5-3.1-5.6-5.7-9-7.6c-8-4.6-17.5-5.8-26.9-3.6L0.3,97
	c9-2.2,18.2-1,25.9,3.4C29.1,102.1,31.7,104.2,33.9,106.7L33.9,106.7z M33.9,106.7"/>
<path class="st0" d="M53.4,109.4c-3.6-5.8-11.6-6.9-17.8-2.6l-0.8-1.3c6.9-4.8,15.9-3.5,19.9,3L53.4,109.4L53.4,109.4z M53.4,109.4"
	/>
<path class="st0" d="M53.8,109.5l-0.9-1.2c9.9-9.2,23.4-9.8,30.2-1.4l-1.1,1C75.7,100.2,63,100.9,53.8,109.5L53.8,109.5z
	 M30.6,111.4h0.9c-1.1-1.4-2.5-2.5-4-3.4c-3.6-2.1-7.9-2.6-12-1.6l0.1,0.7c3.9-1,8-0.5,11.5,1.5C28.5,109.3,29.7,110.3,30.6,111.4
	L30.6,111.4L30.6,111.4z M30.6,111.4"/>
<path class="st0" d="M39.5,112.9c-0.8-1.3-2.1-2.2-3.6-2.4c-1.7-0.2-3.3,0.2-4.7,1.2l-0.8-1.3c1.6-1.2,3.7-1.7,5.7-1.4
	c1.9,0.3,3.7,1.4,4.7,3.1L39.5,112.9L39.5,112.9L39.5,112.9z M39.5,112.9"/>
<path class="st0" d="M30.6,110.7h0.9c-1.1-1.4-2.5-2.5-4-3.4c-3.6-2.1-7.9-2.6-12-1.6l0.1,0.7c3.9-1,8-0.5,11.5,1.5
	C28.5,108.6,29.6,109.6,30.6,110.7L30.6,110.7z M97.2,104.1c-3.7-0.2-8,1.7-11.4,5.4l1,1.1c3.1-3.3,6.9-5.1,10.2-4.9L97.2,104.1
	L97.2,104.1z M97.2,104.1"/>
</svg>
