<!-- Generator: Adobe Illustrator 22.0.1, SVG Export Plug-In  -->
<svg version="1.1"
	 xmlns="http://www.w3.org/2000/svg" xmlns:xlink="http://www.w3.org/1999/xlink" xmlns:a="http://ns.adobe.com/AdobeSVGViewerExtensions/3.0/"
	 x="0px" y="0px" width="100.3px" height="130px" viewBox="0 0 100.3 130" style="enable-background:new 0 0 100.3 130;"
	 xml:space="preserve">
<style type="text/css">
	.st0{fill:#CCCCCC;}
</style>
<defs>
</defs>
<path class="st0" d="M65.8,130H31.9c-0.5,0-1-0.4-1-1c0-0.5,0.4-1,1-1h33.8c0.5,0,1,0.4,1,1C66.7,129.6,66.3,130,65.8,130L65.8,130z
	 M62.4,12.9c-1.1,0-2.1-0.7-2.3-1.9l-1.9-8.2c-0.3-1.3,0.5-2.6,1.8-2.9c1.3-0.3,2.6,0.5,2.9,1.8l1.9,8.2c0.3,1.3-0.5,2.6-1.8,2.9
	C62.8,12.9,62.6,12.9,62.4,12.9z M89.1,34c-0.2,0-0.3,0-0.5,0l-8.2-1.7c-1.3-0.3-2.1-1.5-1.9-2.8c0.3-1.3,1.5-2.1,2.8-1.9l8.2,1.7
	c1.3,0.3,2.1,1.5,1.9,2.8C91.2,33.2,90.2,34,89.1,34L89.1,34z M76,17.5c-0.7,0-1.4-0.3-1.8-0.9c-0.8-1-0.7-2.5,0.3-3.4l7-5.8
	c1-0.8,2.5-0.7,3.4,0.3c0.8,1,0.7,2.5-0.3,3.4l-7,5.8C77.1,17.3,76.5,17.5,76,17.5z M99.1,123.3H42.7l39.6-14.3
	c2.5-0.9,4.4-2.7,5.5-5c1.1-2.4,1.2-5,0.3-7.5l-2.6-7.1c-0.3-0.9-1.3-1.3-2.1-1c-0.9,0.3-1.3,1.3-1,2.1l2.6,7.1
	c0.6,1.6,0.5,3.4-0.2,4.9c-0.7,1.6-2,2.7-3.6,3.3l-44.5,16.1c-1.6,0.6-3.4,0.5-4.9-0.2c-1.6-0.7-2.7-2-3.3-3.6L3.7,50.2
	c-1.2-3.3,0.5-7,3.8-8.2l44.5-16.1c1.6-0.6,3.4-0.5,4.9,0.2c1.6,0.7,2.7,2,3.3,3.6l10.1,27.8c0.3,0.9,1.3,1.3,2.1,1
	c0.9-0.3,1.3-1.3,1-2.1L63.5,28.5c-0.9-2.5-2.7-4.4-5-5.5c-2.4-1.1-5-1.2-7.5-0.3L6.4,38.8c-5.1,1.8-7.7,7.4-5.9,12.5l24.6,67.9
	c1.2,3.3,4,5.6,7.2,6.2c0.2,0.1,0.4,0.2,0.6,0.2h0.8c0.2,0,0.3,0,0.5,0c0.2,0,0.3,0,0.5,0h64.2c0.7,0,1.2-0.5,1.2-1.2
	C100.3,123.8,99.8,123.3,99.1,123.3L99.1,123.3z M87.5,51.6l-2.6-1.4c-1-0.6-2.5,0.2-3.3,1.6L59.9,91.7c-0.1,0.2-0.1,0.4-0.1,0.6
	l0.1,4.4c-0.1,0-0.1,0-0.2,0L53,99.3c-0.4,0.1-0.6,0.6-0.4,0.9c0.1,0.4,0.6,0.6,0.9,0.4l6.5-2.4l0,0.1c0,0.5,0.4,0.7,0.8,0.5
	l5.1-3.1c0.2-0.1,0.3-0.2,0.4-0.4l21.7-39.9C88.7,53.8,88.5,52.1,87.5,51.6L87.5,51.6z M39.1,104.4l-4.9,1.8
	c-0.4,0.1-0.6,0.6-0.4,0.9c0,0,0,0,0,0c0.1,0.4,0.6,0.6,0.9,0.4l4.9-1.8c0.4-0.1,0.6-0.6,0.4-0.9c0,0,0,0,0,0
	C39.8,104.5,39.4,104.3,39.1,104.4C39.1,104.4,39.1,104.4,39.1,104.4L39.1,104.4z M49.4,100.6l-6.7,2.5c-0.4,0.1-0.6,0.6-0.4,0.9
	c0,0,0,0,0,0c0.1,0.4,0.6,0.6,0.9,0.4l6.7-2.5c0.4-0.1,0.6-0.6,0.4-0.9c0,0,0,0,0,0C50.2,100.6,49.8,100.5,49.4,100.6
	C49.4,100.6,49.4,100.6,49.4,100.6L49.4,100.6z M29.6,89.5c-0.3,0-0.6-0.2-0.7-0.5c-0.1-0.4,0.1-0.8,0.4-0.9l4.2-1.6
	c0.4-0.1,0.8,0.1,0.9,0.4c0.1,0.4-0.1,0.8-0.4,0.9l-4.2,1.6C29.7,89.5,29.7,89.5,29.6,89.5z M37.4,86.6c-0.3,0-0.6-0.2-0.7-0.5
	c-0.1-0.4,0.1-0.8,0.4-0.9c0,0,0,0,0,0l6.7-2.5c0.4-0.1,0.8,0.1,0.9,0.4c0,0,0,0,0,0c0.1,0.4,0,0.8-0.4,0.9c0,0,0,0,0,0l-6.7,2.5
	C37.6,86.6,37.5,86.6,37.4,86.6L37.4,86.6z M47.7,82.7c-0.3,0-0.6-0.2-0.7-0.5c-0.1-0.4,0-0.8,0.4-0.9c0,0,0,0,0,0l6.7-2.5
	c0.4-0.1,0.8,0.1,0.9,0.4c0,0,0,0,0,0c0.1,0.4,0,0.8-0.4,0.9c0,0,0,0,0,0L48,82.7C47.9,82.7,47.8,82.7,47.7,82.7L47.7,82.7z
	 M58,78.9c-0.4,0-0.7-0.3-0.7-0.7c0-0.3,0.2-0.6,0.5-0.7l6.7-2.5c0.4-0.1,0.8,0.1,0.9,0.4c0,0,0,0,0,0c0.1,0.4-0.1,0.8-0.4,0.9
	c0,0,0,0,0,0l-6.7,2.5C58.2,78.9,58.1,78.9,58,78.9L58,78.9z"/>
</svg>
