<!-- Generator: Adobe Illustrator 21.0.2, SVG Export Plug-In  -->
<svg version="1.1"
	 xmlns="http://www.w3.org/2000/svg" xmlns:xlink="http://www.w3.org/1999/xlink" xmlns:a="http://ns.adobe.com/AdobeSVGViewerExtensions/3.0/"
	 x="0px" y="0px" width="40px" height="40px" viewBox="0 0 40 40" style="overflow:scroll;enable-background:new 0 0 40 40;"
	 xml:space="preserve">
<style type="text/css">
	.st0{opacity:0.5;enable-background:new    ;}
	.st1{fill:#FFFFFF;}
</style>
<defs>
</defs>
<circle class="st0" cx="20" cy="20" r="20"/>
<g>
	<path class="st1" d="M27.1,15.1l-12,12c-0.6,0.6-1.5,0.6-2.1,0l0,0c-0.6-0.6-0.6-1.5,0-2.1l12-12c0.6-0.6,1.5-0.6,2.1,0l0,0
		C27.7,13.5,27.7,14.5,27.1,15.1z"/>
	<path class="st1" d="M24.9,27.1l-12-12c-0.6-0.6-0.6-1.5,0-2.1l0,0c0.6-0.6,1.5-0.6,2.1,0l12,12c0.6,0.6,0.6,1.5,0,2.1l0,0
		C26.5,27.7,25.5,27.7,24.9,27.1z"/>
</g>
</svg>
