<?xml version="1.0" standalone="no"?><!DOCTYPE svg PUBLIC "-//W3C//DTD SVG 1.1//EN" "http://www.w3.org/Graphics/SVG/1.1/DTD/svg11.dtd"><svg t="1515579591291" class="icon" style="" viewBox="0 0 1024 1024" version="1.1" xmlns="http://www.w3.org/2000/svg" p-id="4358" xmlns:xlink="http://www.w3.org/1999/xlink" width="200" height="200"><defs><style type="text/css"></style></defs><path d="M512.851902 63.926962c246.971881 0 447.184809 200.214974 447.184809 447.184809 0 246.971881-200.212928 447.184809-447.184809 447.184809-246.970858 0-447.184809-200.212928-447.184809-447.184809C65.667094 264.141936 265.888208 63.926962 512.851902 63.926962z" p-id="4359" fill="#EB695C"></path><path d="M511.400854 956.217221c-60.110029 0-118.424156-11.774161-173.322487-34.992979-53.023634-22.426779-100.644211-54.533011-141.53655-95.423303-40.892339-40.893362-72.998571-88.512916-95.426373-141.53655-23.220864-54.898331-34.994002-113.213481-34.994002-173.324534 0-60.110029 11.773138-118.424156 34.994002-173.322487 22.427802-53.023634 54.534034-100.644211 95.426373-141.53655 40.892339-40.892339 88.511893-72.998571 141.53655-95.426373C392.976698 77.432557 451.290825 65.659419 511.400854 65.659419c60.110029 0 118.424156 11.773138 173.322487 34.994002 53.023634 22.427802 100.644211 54.534034 141.53655 95.426373 40.891316 40.892339 72.997548 88.511893 95.42535 141.53655 23.219841 54.898331 34.994002 113.212458 34.994002 173.322487 0 60.112076-11.774161 118.426203-34.994002 173.324534-22.427802 53.023634-54.534034 100.644211-95.42535 141.53655-40.893362 40.890292-88.512916 72.996524-141.53655 95.423303C629.825011 944.44306 571.510884 956.217221 511.400854 956.217221zM511.400854 73.02006c-241.469564 0-437.918771 196.449207-437.918771 437.918771 0 241.46854 196.449207 437.918771 437.918771 437.918771 241.470587 0 437.918771-196.450231 437.918771-437.918771C949.319625 269.469268 752.871441 73.02006 511.400854 73.02006z" p-id="4360" fill="#EB695C"></path><path d="M708.442556 688.684048l-71.990614-71.995731c28.726252-33.605376 46.143946-77.3159 46.143946-124.325563 0-102.799294-83.220377-182.39205-186.011484-182.39205-102.776781 0-186.215122 79.599919-186.215122 182.39205 0 102.777805 83.438341 189.836603 186.215122 189.836603 38.554084 0 74.348312-12.260232 104.037495-32.995485l-15.286148-15.286148 0.127913-0.382717c-63.460334 41.132816-149.137669 33.895995-204.771757-21.731954-63.955614-63.955614-63.955614-167.655418 0-231.617172 63.968917-63.962777 167.662581-63.962777 231.624335 0 60.21236 60.219523 63.726394 155.649989 10.56052 219.99139l0.265036 0.132006c0 0-14.388708 16.568351-5.176906 36.393885l71.224158 71.238484c5.315052 5.313006 13.938454 5.313006 19.252483 0C713.755562 702.614315 713.755562 694.00524 708.442556 688.684048z" p-id="4361" fill="#EB695C"></path></svg>