<?xml version="1.0" standalone="no"?><!DOCTYPE svg PUBLIC "-//W3C//DTD SVG 1.1//EN" "http://www.w3.org/Graphics/SVG/1.1/DTD/svg11.dtd"><svg t="1515660066605" class="icon" style="" viewBox="0 0 1024 1024" version="1.1" xmlns="http://www.w3.org/2000/svg" p-id="15145" xmlns:xlink="http://www.w3.org/1999/xlink" width="200" height="200"><defs><style type="text/css"></style></defs><path d="M491.52 334.506667C389.12 334.506667 314.026667 409.6 314.026667 512c0 95.573333 75.093333 177.493333 177.493333 177.493333S669.013333 614.4 669.013333 512C662.186667 409.6 587.093333 334.506667 491.52 334.506667z" p-id="15146" fill="#EB695C"></path><path d="M512 0C232.106667 0 0 232.106667 0 512S232.106667 1024 512 1024 1024 791.893333 1024 512 791.893333 0 512 0z m-20.48 744.106667c-122.88 0-232.106667-102.4-232.106667-232.106667 0-122.88 102.4-225.28 232.106667-225.28s232.106667 109.226667 232.106667 232.106667c-6.826667 116.053333-109.226667 225.28-232.106667 225.28z m252.586667 40.96c-13.653333 6.826667-27.306667 6.826667-34.133334-6.826667-13.653333-13.653333-34.133333-27.306667-47.786666-47.786667-6.826667-13.653333-13.653333-20.48-6.826667-34.133333s13.653333-13.653333 34.133333-13.653333c6.826667 0 13.653333 0 20.48 6.826666l40.96 40.96c20.48 20.48 13.653333 40.96-6.826666 54.613334z" p-id="15147" fill="#EB695C"></path></svg>