<?xml version="1.0" standalone="no"?><!DOCTYPE svg PUBLIC "-//W3C//DTD SVG 1.1//EN" "http://www.w3.org/Graphics/SVG/1.1/DTD/svg11.dtd"><svg t="1515661138487" class="icon" style="" viewBox="0 0 1024 1024" version="1.1" xmlns="http://www.w3.org/2000/svg" p-id="21659" xmlns:xlink="http://www.w3.org/1999/xlink" width="200" height="200"><defs><style type="text/css"></style></defs><path d="M511.655657 1005.745241C235.26884 1004.883617 13.351588 781.802866 14.162046 505.644245 14.969435 230.862995 239.040746 9.215896 515.160481 10.06831c273.722128 0.846274 495.601518 225.273696 494.677473 500.359892C1008.919025 783.906783 784.940834 1006.596631 511.655657 1005.745241zM517.352403 241.414305c-81.338516 0-162.680103-0.140193-244.017596 0.211824-8.295943 0.035816-17.284665 1.484817-24.741497 4.91187-24.592095 11.301394-35.260062 31.781844-35.253922 58.383712 0.022513 105.893772-0.001023 211.789591 0.046049 317.683363 0.002047 4.587482 0.072655 9.261944 0.902556 13.749142 5.726421 30.952966 28.823466 49.987484 60.375066 49.991578 50.815339 0.005117 101.631702 0.051165 152.448064-0.096191 3.921309-0.011256 6.151094 1.094938 8.045233 4.54041 3.360538 6.113231 7.270591 11.923564 10.94733 17.863856 18.026562 29.116131 36.080753 58.216913 54.057173 87.364767 3.936659 6.383384 9.105379 10.527774 16.930601 10.469446 7.860015-0.058328 12.840446-4.499477 16.740266-10.819416 21.298072-34.505885 42.72508-68.932975 63.912635-103.506399 2.571568-4.195555 5.190209-5.990434 10.392698-5.963829 50.473555 0.24764 100.954273-0.308015 151.422711 0.306992 34.718733 0.422625 60.862159-27.796066 60.892859-60.414975 0.104377-108.111277 0.086981-216.223576 0.011256-324.334853-0.023536-33.079396-25.948999-60.753689-60.628846-60.516282C679.011246 241.790882 598.18029 241.414305 517.352403 241.414305z" p-id="21660" fill="#FBB017"></path><path d="M346.246397 407.937946c0-10.849092 0-21.352307 0-32.296567 110.449531 0 220.774219 0 331.430458 0 0 10.686387 0 21.328771 0 32.296567C567.272349 407.937946 457.061248 407.937946 346.246397 407.937946z" p-id="21661" fill="#FBB017"></path><path d="M379.666554 508.156462c88.3717 0 176.460967 0 264.779456 0 0 10.995425 0 21.674649 0 32.662911-88.287789 0-176.36273 0-264.779456 0C379.666554 530.068518 379.666554 519.411807 379.666554 508.156462z" p-id="21662" fill="#FBB017"></path></svg>