<?xml version="1.0" standalone="no"?><!DOCTYPE svg PUBLIC "-//W3C//DTD SVG 1.1//EN" "http://www.w3.org/Graphics/SVG/1.1/DTD/svg11.dtd"><svg t="1515579695418" class="icon" style="" viewBox="0 0 1285 1024" version="1.1" xmlns="http://www.w3.org/2000/svg" p-id="5038" xmlns:xlink="http://www.w3.org/1999/xlink" width="250.9765625" height="200"><defs><style type="text/css"></style></defs><path d="M416.690486 300.264542c-2.039841 0-3.671713-0.407968-5.711554-0.407968-14.686853 0-31.821514 4.079681-43.244621 10.607171-19.990438 11.015139-33.453386 30.59761-41.204781 57.523506-15.502789 56.70757 1.223904 138.709163 44.060558 213.775299 50.996016 89.34502 130.549801 151.764143 193.78486 151.764143 14.686853 0 28.149801-3.263745 39.572909-9.791235 13.462948-7.751394 28.557769-20.398406 31.821514-31.821514 6.119522-22.846215-0.815936-57.115538-37.941036-86.081275-19.58247-15.094821-41.204781-24.07012-58.339443-24.070119-6.52749 0-22.030279 9.383267-27.333864 12.647012-6.52749 4.079681-9.791235 6.119522-15.502789 6.119522-10.199203 0-14.686853-5.303586-29.781673-26.517929-3.671713-4.895618-15.910757-21.622311-22.438247-33.453386-9.383267-16.318725-20.398406-43.244622-24.886056-61.195219-1.223904-4.895618-2.447809-17.134661 15.502789-22.846215 14.686853-4.895618 19.174502-7.751394 20.398406-8.975299 11.831076-13.870916 17.134661-40.388845 13.462948-69.76255-6.119522-47.732271-34.677291-76.29004-52.21992-77.513944z" p-id="5039" fill="#FBB017"></path><path d="M540.712797 0c-282.313944 0-512 229.686056-512 512s229.686056 512 512 512 512-229.686056 512-512-229.686056-512-512-512z m-66.498805 522.607171c5.711554 10.199203 17.542629 26.517928 25.294024 37.1251 12.647012-7.343426 26.10996-13.462948 38.756972-13.462948 25.294024 0 54.259761 11.423108 80.369721 31.821514 52.627888 39.572908 60.787251 89.34502 50.996016 122.798406-8.159363 28.557769-39.572908 48.140239-48.956175 53.443825-17.134661 9.791235-36.309163 14.686853-57.115538 14.686852-76.29004 0-166.858964-68.130677-224.790438-169.714741-48.140239-84.449402-66.090837-174.610359-47.732271-241.109163 9.791235-35.901195 29.781673-63.23506 57.931474-79.145817 19.174502-10.607171 46.508367-16.726693 69.354582-14.686852 39.980876 3.263745 77.513944 50.996016 84.85737 108.519522 5.303586 40.388845-2.855777 75.882072-22.030279 97.91235-5.711554 6.52749-13.870916 11.015139-23.254183 15.094821 4.487649 13.05498 11.015139 27.333865 16.318725 36.717131z m202.352191-36.717131c-6.52749 10.199203-24.478088 27.741833-49.772111 27.741833-25.294024 0-42.836653-17.542629-49.364144-27.741833-5.303586-8.567331-2.447809-19.58247 5.711554-24.478088 8.159363-5.303586 19.174502-2.855777 24.478088 5.711554 0.407968 0.815936 7.751394 11.015139 19.174502 11.015139 11.831076 0 19.58247-11.423108 19.58247-11.423107 5.303586-8.159363 16.726693-10.607171 24.886056-4.895618 8.159363 4.895618 10.607171 15.910757 5.303585 24.07012z m2.447809-70.170518v-17.54263c0-9.791235 8.159363-17.950598 17.950598-17.950597 9.791235 0 17.950598 8.159363 17.950597 17.950597v17.54263c0 9.791235-8.159363 17.950598-17.950597 17.950598-9.791235 0-17.950598-8.159363-17.950598-17.950598z m-104.031872 0c0 9.791235-8.159363 17.950598-17.950598 17.950598s-17.950598-8.159363-17.950598-17.950598v-17.54263c0-9.791235 8.159363-17.950598 17.950598-17.950597s17.950598 8.159363 17.950598 17.950597v17.54263z m147.276494 213.367331c-3.263745 2.855777-7.343426 4.079681-11.423108 4.079681-5.303586 0-10.199203-2.039841-13.870916-6.52749-6.52749-7.751394-5.303586-18.766534 2.03984-25.294024 39.980876-33.453386 62.827092-82.409562 62.827092-134.221514 0-97.504382-80.369721-176.650199-178.69004-176.650199-17.950598 0-35.901195 2.855777-53.035857 7.751394-9.383267 2.855777-19.58247-2.447809-22.438247-11.831076-2.855777-9.383267 2.447809-19.58247 11.831076-22.438247 20.398406-6.119522 42.020717-9.383267 63.643028-9.383266 118.310757 0 214.591235 95.056574 214.591235 212.143426 0 63.23506-27.741833 121.98247-75.474103 162.371315z" p-id="5040" fill="#FBB017"></path></svg>